# xmcd
#
# Track frame offsets: 
#        150
#        21297
#        48930
#        68387
#        83445
#        96560
#        116135
#        131715
#        152590
#        167707
#        186175
#        204212
#        227957
#        247115
#
# Disc length: 3481 seconds
#
# Revision: 3
# Processed by: cddbd v1.5.2PL0 Copyright (c) Steve Scherf et al.
# Submitted via: ExactAudioCopy v0.99pb1
#
DISCID=b70d970e
DTITLE=Luqman Hamza - With this voice
DYEAR=2000
DGENRE=Jazz
TTITLE0=Born to be blue
TTITLE1=Feeling good
TTITLE2=My one and only love
TTITLE3=Never let me go
TTITLE4=Weaver of dreams
TTITLE5=Until the real thing comes along
TTITLE6=Blue moon
TTITLE7=My funny Valentine
TTITLE8=Don't get around much anymore
TTITLE9=Laura
TTITLE10=What does it take
TTITLE11=Just one of those thing
TTITLE12=With these hands
TTITLE13=Smoke gets in your eyes
EXTD=
EXTT0=
EXTT1=
EXTT2=
EXTT3=
EXTT4=
EXTT5=
EXTT6=
EXTT7=
EXTT8=
EXTT9=
EXTT10=
EXTT11=
EXTT12=
EXTT13=
PLAYORDER=
